<svg width="497" height="147" viewBox="0 0 497 147" fill="none" xmlns="http://www.w3.org/2000/svg">
<g filter="url(#filter0_d_164_2)">
<path d="M168.58 44V46.8H158.98V72H156.18V46.8H146.6V44H168.58ZM190.895 44H193.695V72H190.895V58.4H176.195V72H173.395V44H176.195V55.6H190.895V44ZM199.312 72V44H216.352V46.8H202.112V55.6H213.892V58.4H202.112V69.2H216.352V72H199.312ZM242.827 72.52C240.587 72.52 238.654 71.9733 237.027 70.88C235.401 69.7867 234.147 68.32 233.267 66.48C232.401 64.6267 231.967 62.5733 231.967 60.32V44H234.767V60.32C234.767 62.0267 235.081 63.5933 235.707 65.02C236.334 66.4467 237.247 67.5867 238.447 68.44C239.647 69.2933 241.107 69.72 242.827 69.72C244.587 69.72 246.061 69.2933 247.247 68.44C248.447 67.5733 249.354 66.4267 249.967 65C250.581 63.5733 250.887 62.0133 250.887 60.32V44H253.687V60.32C253.687 62.0133 253.434 63.6 252.927 65.08C252.434 66.5467 251.714 67.84 250.767 68.96C249.834 70.08 248.694 70.9533 247.347 71.58C246.014 72.2067 244.507 72.52 242.827 72.52ZM259.095 72V44H268.595C270.089 44 271.435 44.3667 272.635 45.1C273.835 45.82 274.789 46.8 275.495 48.04C276.202 49.2667 276.555 50.6467 276.555 52.18C276.555 53.5533 276.275 54.8 275.715 55.92C275.155 57.04 274.389 57.9667 273.415 58.7C272.455 59.4333 271.369 59.92 270.155 60.16L276.995 72H273.755L267.015 60.38H261.895V72H259.095ZM261.895 57.58H268.355C269.342 57.58 270.242 57.34 271.055 56.86C271.882 56.3667 272.535 55.7067 273.015 54.88C273.509 54.04 273.755 53.0933 273.755 52.04C273.755 50.9867 273.509 50.0467 273.015 49.22C272.535 48.38 271.882 47.72 271.055 47.24C270.242 46.7467 269.342 46.5 268.355 46.5H261.895V57.58ZM282.747 72V44H292.207C293.567 44 294.8 44.28 295.907 44.84C297.027 45.3867 297.914 46.1933 298.567 47.26C299.234 48.3133 299.567 49.5933 299.567 51.1C299.567 51.9533 299.414 52.7667 299.107 53.54C298.8 54.3133 298.4 54.9733 297.907 55.52C297.414 56.0533 296.88 56.4 296.307 56.56C297.134 56.7733 297.847 57.1467 298.447 57.68C299.047 58.2 299.54 58.82 299.927 59.54C300.314 60.2467 300.594 60.9933 300.767 61.78C300.954 62.5667 301.047 63.34 301.047 64.1C301.047 65.6733 300.7 67.0533 300.007 68.24C299.327 69.4267 298.414 70.3533 297.267 71.02C296.12 71.6733 294.847 72 293.447 72H282.747ZM285.547 69.5H293.227C294.2 69.5 295.08 69.2467 295.867 68.74C296.667 68.2333 297.3 67.54 297.767 66.66C298.247 65.78 298.487 64.7867 298.487 63.68C298.487 62.6933 298.247 61.7667 297.767 60.9C297.3 60.02 296.667 59.3133 295.867 58.78C295.08 58.2333 294.2 57.96 293.227 57.96H285.547V69.5ZM285.547 55.5H291.967C293.287 55.5 294.414 55.12 295.347 54.36C296.294 53.5867 296.767 52.4933 296.767 51.08C296.767 49.5333 296.294 48.3867 295.347 47.64C294.414 46.88 293.287 46.5 291.967 46.5H285.547V55.5ZM314.021 44H317.501L327.701 72H324.721L322.541 66H309.001L306.821 72H303.841L314.021 44ZM310.021 63.2H321.501L315.761 47.44L310.021 63.2ZM332.237 72V44H335.277L350.057 66.94V44H352.857V72H349.837L335.037 49.06V72H332.237ZM382.257 72.52C380.337 72.52 378.537 72.1467 376.857 71.4C375.19 70.64 373.73 69.5933 372.477 68.26C371.223 66.9133 370.243 65.3667 369.537 63.62C368.83 61.86 368.477 59.98 368.477 57.98C368.477 55.94 368.843 54.04 369.577 52.28C370.31 50.52 371.317 48.9867 372.597 47.68C373.877 46.36 375.343 45.3333 376.997 44.6C378.663 43.8667 380.43 43.5 382.297 43.5C384.443 43.5 386.47 44 388.377 45C390.297 46 391.923 47.42 393.257 49.26L390.757 50.62C389.69 49.22 388.403 48.1467 386.897 47.4C385.403 46.6533 383.863 46.28 382.277 46.28C380.77 46.28 379.35 46.5867 378.017 47.2C376.697 47.8 375.53 48.64 374.517 49.72C373.503 50.8 372.71 52.0467 372.137 53.46C371.563 54.8733 371.277 56.3933 371.277 58.02C371.277 59.6333 371.563 61.1467 372.137 62.56C372.71 63.9733 373.497 65.22 374.497 66.3C375.51 67.3667 376.683 68.2067 378.017 68.82C379.35 69.42 380.777 69.72 382.297 69.72C383.55 69.72 384.737 69.5067 385.857 69.08C386.99 68.64 388.023 68.0267 388.957 67.24C389.89 66.4533 390.677 65.5333 391.317 64.48C391.97 63.4267 392.443 62.28 392.737 61.04H385.177V58.5H395.997C395.957 60.4333 395.57 62.2467 394.837 63.94C394.103 65.6333 393.103 67.1267 391.837 68.42C390.583 69.7 389.137 70.7067 387.497 71.44C385.87 72.16 384.123 72.52 382.257 72.52ZM408.558 44H412.038L422.238 72H419.258L417.078 66H403.538L401.358 72H398.378L408.558 44ZM404.558 63.2H416.038L410.298 47.44L404.558 63.2ZM426.775 72V44H429.575V69.2H442.435V72H426.775ZM456.291 44H459.771L469.971 72H466.991L464.811 66H451.271L449.091 72H446.111L456.291 44ZM452.291 63.2H463.771L458.031 47.44L452.291 63.2Z" fill="url(#paint0_linear_164_2)"/>
<path d="M145.96 103V91.8H147.176L153.088 100.976V91.8H154.208V103H153L147.08 93.824V103H145.96ZM159.884 91.8H161.276L165.356 103H164.164L163.292 100.6H157.876L157.004 103H155.812L159.884 91.8ZM158.284 99.48H162.876L160.58 93.176L158.284 99.48ZM169.081 103L165.017 91.8H166.201L169.753 101.592L173.321 91.8H174.505L170.433 103H169.081ZM176.184 103V91.8H177.304V103H176.184ZM184.652 103.208C183.884 103.208 183.164 103.059 182.492 102.76C181.825 102.456 181.241 102.037 180.74 101.504C180.239 100.965 179.847 100.347 179.564 99.648C179.281 98.944 179.14 98.192 179.14 97.392C179.14 96.576 179.287 95.816 179.58 95.112C179.873 94.408 180.276 93.7947 180.788 93.272C181.3 92.744 181.887 92.3333 182.548 92.04C183.215 91.7467 183.921 91.6 184.668 91.6C185.527 91.6 186.337 91.8 187.1 92.2C187.868 92.6 188.519 93.168 189.052 93.904L188.052 94.448C187.625 93.888 187.111 93.4587 186.508 93.16C185.911 92.8613 185.295 92.712 184.66 92.712C184.057 92.712 183.489 92.8347 182.956 93.08C182.428 93.32 181.961 93.656 181.556 94.088C181.151 94.52 180.833 95.0187 180.604 95.584C180.375 96.1493 180.26 96.7573 180.26 97.408C180.26 98.0533 180.375 98.6587 180.604 99.224C180.833 99.7893 181.148 100.288 181.548 100.72C181.953 101.147 182.423 101.483 182.956 101.728C183.489 101.968 184.06 102.088 184.668 102.088C185.169 102.088 185.644 102.003 186.092 101.832C186.545 101.656 186.959 101.411 187.332 101.096C187.705 100.781 188.02 100.413 188.276 99.992C188.537 99.5707 188.727 99.112 188.844 98.616H185.82V97.6H190.148C190.132 98.3733 189.977 99.0987 189.684 99.776C189.391 100.453 188.991 101.051 188.484 101.568C187.983 102.08 187.404 102.483 186.748 102.776C186.097 103.064 185.399 103.208 184.652 103.208ZM194.853 91.8H196.245L200.325 103H199.133L198.261 100.6H192.845L191.973 103H190.781L194.853 91.8ZM193.253 99.48H197.845L195.549 93.176L193.253 99.48ZM209.01 91.8V92.92H205.17V103H204.05V92.92H200.218V91.8H209.01ZM210.616 103V91.8H217.432V92.92H211.736V96.44H216.448V97.56H211.736V101.88H217.432V103H210.616ZM231.51 91.8V92.92H227.67V103H226.55V92.92H222.718V91.8H231.51ZM240.116 91.8H241.236V103H240.116V97.56H234.236V103H233.116V91.8H234.236V96.44H240.116V91.8ZM243.163 103V91.8H249.979V92.92H244.283V96.44H248.995V97.56H244.283V101.88H249.979V103H243.163ZM255.585 103V91.8H259.369C259.913 91.8 260.406 91.912 260.849 92.136C261.297 92.3547 261.652 92.6773 261.913 93.104C262.18 93.5253 262.313 94.0373 262.313 94.64C262.313 94.9813 262.252 95.3067 262.129 95.616C262.006 95.9253 261.846 96.1893 261.649 96.408C261.452 96.6213 261.238 96.76 261.009 96.824C261.34 96.9093 261.625 97.0587 261.865 97.272C262.105 97.48 262.302 97.728 262.457 98.016C262.612 98.2987 262.724 98.5973 262.793 98.912C262.868 99.2267 262.905 99.536 262.905 99.84C262.905 100.469 262.766 101.021 262.489 101.496C262.217 101.971 261.852 102.341 261.393 102.608C260.934 102.869 260.425 103 259.865 103H255.585ZM256.705 102H259.777C260.166 102 260.518 101.899 260.833 101.696C261.153 101.493 261.406 101.216 261.593 100.864C261.785 100.512 261.881 100.115 261.881 99.672C261.881 99.2773 261.785 98.9067 261.593 98.56C261.406 98.208 261.153 97.9253 260.833 97.712C260.518 97.4933 260.166 97.384 259.777 97.384H256.705V102ZM256.705 96.4H259.273C259.801 96.4 260.252 96.248 260.625 95.944C261.004 95.6347 261.193 95.1973 261.193 94.632C261.193 94.0133 261.004 93.5547 260.625 93.256C260.252 92.952 259.801 92.8 259.273 92.8H256.705V96.4ZM264.606 103V91.8H265.726V103H264.606ZM273.074 103.208C272.306 103.208 271.586 103.059 270.914 102.76C270.247 102.456 269.663 102.037 269.162 101.504C268.661 100.965 268.269 100.347 267.986 99.648C267.703 98.944 267.562 98.192 267.562 97.392C267.562 96.576 267.709 95.816 268.002 95.112C268.295 94.408 268.698 93.7947 269.21 93.272C269.722 92.744 270.309 92.3333 270.97 92.04C271.637 91.7467 272.343 91.6 273.09 91.6C273.949 91.6 274.759 91.8 275.522 92.2C276.29 92.6 276.941 93.168 277.474 93.904L276.474 94.448C276.047 93.888 275.533 93.4587 274.93 93.16C274.333 92.8613 273.717 92.712 273.082 92.712C272.479 92.712 271.911 92.8347 271.378 93.08C270.85 93.32 270.383 93.656 269.978 94.088C269.573 94.52 269.255 95.0187 269.026 95.584C268.797 96.1493 268.682 96.7573 268.682 97.408C268.682 98.0533 268.797 98.6587 269.026 99.224C269.255 99.7893 269.57 100.288 269.97 100.72C270.375 101.147 270.845 101.483 271.378 101.728C271.911 101.968 272.482 102.088 273.09 102.088C273.591 102.088 274.066 102.003 274.514 101.832C274.967 101.656 275.381 101.411 275.754 101.096C276.127 100.781 276.442 100.413 276.698 99.992C276.959 99.5707 277.149 99.112 277.266 98.616H274.242V97.6H278.57C278.554 98.3733 278.399 99.0987 278.106 99.776C277.813 100.453 277.413 101.051 276.906 101.568C276.405 102.08 275.826 102.483 275.17 102.776C274.519 103.064 273.821 103.208 273.074 103.208ZM287.759 91.8H289.151L293.231 103H292.039L291.167 100.6H285.751L284.879 103H283.687L287.759 91.8ZM286.159 99.48H290.751L288.455 93.176L286.159 99.48ZM294.726 103V91.8H298.31C298.907 91.8 299.446 91.9467 299.926 92.24C300.406 92.528 300.787 92.92 301.07 93.416C301.358 93.9067 301.502 94.4587 301.502 95.072C301.502 95.6907 301.355 96.248 301.062 96.744C300.774 97.24 300.387 97.632 299.902 97.92C299.422 98.208 298.891 98.352 298.31 98.352H295.846V103H294.726ZM295.846 97.232H298.222C298.616 97.232 298.976 97.136 299.302 96.944C299.632 96.7467 299.894 96.4827 300.086 96.152C300.283 95.816 300.382 95.4373 300.382 95.016C300.382 94.5947 300.283 94.2187 300.086 93.888C299.894 93.552 299.632 93.288 299.302 93.096C298.976 92.8987 298.616 92.8 298.222 92.8H295.846V97.232ZM303.132 103V91.8H306.716C307.313 91.8 307.852 91.9467 308.332 92.24C308.812 92.528 309.193 92.92 309.476 93.416C309.764 93.9067 309.908 94.4587 309.908 95.072C309.908 95.6907 309.761 96.248 309.468 96.744C309.18 97.24 308.793 97.632 308.308 97.92C307.828 98.208 307.297 98.352 306.716 98.352H304.252V103H303.132ZM304.252 97.232H306.628C307.023 97.232 307.383 97.136 307.708 96.944C308.039 96.7467 308.3 96.4827 308.492 96.152C308.689 95.816 308.788 95.4373 308.788 95.016C308.788 94.5947 308.689 94.2187 308.492 93.888C308.3 93.552 308.039 93.288 307.708 93.096C307.383 92.8987 307.023 92.8 306.628 92.8H304.252V97.232ZM311.538 103V91.8H312.658V101.88H317.802V103H311.538ZM319.569 103V91.8H326.385V92.92H320.689V96.44H325.401V97.56H320.689V101.88H326.385V103H319.569ZM331.991 97.64H337.111V98.76H331.991V97.64ZM348.082 103.208C347.325 103.208 346.613 103.059 345.946 102.76C345.279 102.456 344.693 102.037 344.186 101.504C343.679 100.971 343.282 100.355 342.994 99.656C342.706 98.952 342.562 98.2 342.562 97.4C342.562 96.6 342.706 95.8507 342.994 95.152C343.282 94.448 343.679 93.8293 344.186 93.296C344.693 92.7627 345.279 92.3467 345.946 92.048C346.613 91.744 347.325 91.592 348.082 91.592C348.845 91.592 349.559 91.744 350.226 92.048C350.893 92.3467 351.479 92.7627 351.986 93.296C352.493 93.8293 352.887 94.448 353.17 95.152C353.458 95.8507 353.602 96.6 353.602 97.4C353.602 98.2 353.458 98.952 353.17 99.656C352.887 100.355 352.493 100.971 351.986 101.504C351.479 102.037 350.893 102.456 350.226 102.76C349.559 103.059 348.845 103.208 348.082 103.208ZM348.082 102.088C348.695 102.088 349.266 101.965 349.794 101.72C350.327 101.469 350.794 101.128 351.194 100.696C351.599 100.264 351.914 99.7653 352.138 99.2C352.367 98.6347 352.482 98.0347 352.482 97.4C352.482 96.76 352.367 96.1573 352.138 95.592C351.909 95.0213 351.591 94.5227 351.186 94.096C350.786 93.664 350.319 93.3253 349.786 93.08C349.258 92.8347 348.69 92.712 348.082 92.712C347.469 92.712 346.895 92.8373 346.362 93.088C345.834 93.3333 345.367 93.672 344.962 94.104C344.562 94.536 344.247 95.0347 344.018 95.6C343.794 96.1653 343.682 96.7653 343.682 97.4C343.682 98.0453 343.797 98.6507 344.026 99.216C344.255 99.7813 344.57 100.28 344.97 100.712C345.375 101.144 345.842 101.483 346.37 101.728C346.903 101.968 347.474 102.088 348.082 102.088ZM355.226 103V91.8H356.442L362.354 100.976V91.8H363.474V103H362.266L356.346 93.824V103H355.226ZM365.398 103V91.8H372.214V92.92H366.518V96.44H371.23V97.56H366.518V101.88H372.214V103H365.398ZM383.011 103.208C382.243 103.208 381.523 103.059 380.851 102.76C380.185 102.456 379.601 102.037 379.099 101.504C378.598 100.965 378.206 100.347 377.923 99.648C377.641 98.944 377.499 98.192 377.499 97.392C377.499 96.576 377.646 95.816 377.939 95.112C378.233 94.408 378.635 93.7947 379.147 93.272C379.659 92.744 380.246 92.3333 380.907 92.04C381.574 91.7467 382.281 91.6 383.027 91.6C383.886 91.6 384.697 91.8 385.459 92.2C386.227 92.6 386.878 93.168 387.411 93.904L386.411 94.448C385.985 93.888 385.47 93.4587 384.867 93.16C384.27 92.8613 383.654 92.712 383.019 92.712C382.417 92.712 381.849 92.8347 381.315 93.08C380.787 93.32 380.321 93.656 379.915 94.088C379.51 94.52 379.193 95.0187 378.963 95.584C378.734 96.1493 378.619 96.7573 378.619 97.408C378.619 98.0533 378.734 98.6587 378.963 99.224C379.193 99.7893 379.507 100.288 379.907 100.72C380.313 101.147 380.782 101.483 381.315 101.728C381.849 101.968 382.419 102.088 383.027 102.088C383.529 102.088 384.003 102.003 384.451 101.832C384.905 101.656 385.318 101.411 385.691 101.096C386.065 100.781 386.379 100.413 386.635 99.992C386.897 99.5707 387.086 99.112 387.203 98.616H384.179V97.6H388.507C388.491 98.3733 388.337 99.0987 388.043 99.776C387.75 100.453 387.35 101.051 386.843 101.568C386.342 102.08 385.763 102.483 385.107 102.776C384.457 103.064 383.758 103.208 383.011 103.208ZM393.212 91.8H394.604L398.684 103H397.492L396.62 100.6H391.204L390.332 103H389.14L393.212 91.8ZM391.612 99.48H396.204L393.908 93.176L391.612 99.48ZM400.179 103V91.8H401.299V101.88H406.443V103H400.179ZM411.665 91.8H413.057L417.137 103H415.945L415.073 100.6H409.657L408.785 103H407.593L411.665 91.8ZM410.065 99.48H414.657L412.361 93.176L410.065 99.48ZM426.337 91.8H427.729L431.809 103H430.617L429.745 100.6H424.329L423.457 103H422.265L426.337 91.8ZM424.737 99.48H429.329L427.033 93.176L424.737 99.48ZM440.495 91.8V92.92H436.655V103H435.535V92.92H431.703V91.8H440.495ZM449.696 91.8H451.088L455.168 103H453.976L453.104 100.6H447.688L446.816 103H445.624L449.696 91.8ZM448.096 99.48H452.688L450.392 93.176L448.096 99.48ZM469.088 91.8V92.92H465.248V103H464.128V92.92H460.296V91.8H469.088ZM470.934 103V91.8H472.054V103H470.934ZM474.21 103L476.378 91.8H477.194L480.33 100.04L483.45 91.8H484.266L486.442 103H485.298L483.642 94.432L480.682 102.264H479.962L477.002 94.432L475.346 103H474.21ZM488.101 103V91.8H494.917V92.92H489.221V96.44H493.933V97.56H489.221V101.88H494.917V103H488.101Z" fill="url(#paint1_linear_164_2)"/>
</g>
<mask id="mask0_164_2" style="mask-type:alpha" maskUnits="userSpaceOnUse" x="34" y="31" width="81" height="81">
<path d="M114.643 31.2857H34.2857V111.643H114.643V31.2857Z" fill="url(#paint2_linear_164_2)"/>
</mask>
<g mask="url(#mask0_164_2)">
<path d="M74.4643 101.598C67.9352 101.598 62.3968 99.3242 57.8488 94.7762C53.3008 90.2282 51.0268 84.6898 51.0268 78.1607C51.0268 72.9152 52.5753 68.2138 55.6724 64.0564C58.7696 59.8991 62.8292 57.0949 67.8515 55.644C66.7355 55.365 65.6473 54.9604 64.5871 54.4303C63.5268 53.9001 62.5781 53.2166 61.7411 52.3795C59.8995 50.538 58.7137 48.3477 58.1836 45.8086C57.6535 43.2695 57.5279 40.6887 57.8069 38.0658C60.4296 37.7868 63.0106 37.9124 65.5497 38.4425C68.0887 38.9727 70.2791 40.1585 72.1205 42C73.404 43.2835 74.3387 44.7344 74.9247 46.3527C75.5106 47.971 75.8872 49.673 76.0547 51.4587C76.7802 49.7289 77.6591 48.0965 78.6914 46.5619C79.7238 45.0273 80.8817 43.6183 82.1652 42.3348C82.779 41.721 83.5603 41.414 84.5089 41.414C85.4576 41.414 86.2389 41.721 86.8527 42.3348C87.4665 42.9486 87.7735 43.7299 87.7735 44.6786C87.7735 45.6272 87.4665 46.4085 86.8527 47.0223C85.625 48.2501 84.5368 49.6033 83.5881 51.0821C82.6395 52.5609 81.942 54.1372 81.4955 55.8114C86.4062 57.3739 90.3684 60.2059 93.3816 64.3075C96.3951 68.4091 97.9018 73.0269 97.9018 78.1607C97.9018 84.6898 95.6278 90.2282 91.0798 94.7762C86.5318 99.3242 80.9934 101.598 74.4643 101.598ZM74.4643 94.9018C79.096 94.9018 83.0441 93.2696 86.3086 90.005C89.5731 86.7405 91.2054 82.7924 91.2054 78.1607C91.2054 73.529 89.5731 69.5809 86.3086 66.3164C83.0441 63.052 79.096 61.4196 74.4643 61.4196C69.8326 61.4196 65.8845 63.052 62.62 66.3164C59.3554 69.5809 57.7232 73.529 57.7232 78.1607C57.7232 82.7924 59.3554 86.7405 62.62 90.005C65.8845 93.2696 69.8326 94.9018 74.4643 94.9018Z" fill="url(#paint3_linear_164_2)"/>
</g>
<path d="M75 123.429C103.403 123.429 126.429 100.403 126.429 72C126.429 43.5968 103.403 20.5714 75 20.5714C46.5968 20.5714 23.5714 43.5968 23.5714 72C23.5714 100.403 46.5968 123.429 75 123.429Z" stroke="url(#paint4_linear_164_2)" stroke-width="4"/>
<defs>
<filter id="filter0_d_164_2" x="143.96" y="41.5" width="352.957" height="63.708" filterUnits="userSpaceOnUse" color-interpolation-filters="sRGB">
<feFlood flood-opacity="0" result="BackgroundImageFix"/>
<feColorMatrix in="SourceAlpha" type="matrix" values="0 0 0 0 0 0 0 0 0 0 0 0 0 0 0 0 0 0 127 0" result="hardAlpha"/>
<feOffset/>
<feGaussianBlur stdDeviation="1"/>
<feComposite in2="hardAlpha" operator="out"/>
<feColorMatrix type="matrix" values="0 0 0 0 1 0 0 0 0 1 0 0 0 0 1 0 0 0 0.8 0"/>
<feBlend mode="normal" in2="BackgroundImageFix" result="effect1_dropShadow_164_2"/>
<feBlend mode="normal" in="SourceGraphic" in2="effect1_dropShadow_164_2" result="shape"/>
</filter>
<linearGradient id="paint0_linear_164_2" x1="145" y1="58" x2="482" y2="58" gradientUnits="userSpaceOnUse">
<stop stop-color="#3ABEFF"/>
<stop offset="1" stop-color="#FF4ECD"/>
</linearGradient>
<linearGradient id="paint1_linear_164_2" x1="145" y1="97.5" x2="496" y2="97.5" gradientUnits="userSpaceOnUse">
<stop stop-color="#3ABEFF"/>
<stop offset="1" stop-color="#FF4ECD"/>
</linearGradient>
<linearGradient id="paint2_linear_164_2" x1="74.4643" y1="31.2857" x2="74.4643" y2="111.643" gradientUnits="userSpaceOnUse">
<stop stop-color="#D4AF37"/>
<stop offset="1" stop-color="#B47B32"/>
</linearGradient>
<linearGradient id="paint3_linear_164_2" x1="74.4643" y1="37.9215" x2="74.4643" y2="101.598" gradientUnits="userSpaceOnUse">
<stop stop-color="#3ABEFF"/>
<stop offset="1" stop-color="#FF4ECD"/>
</linearGradient>
<linearGradient id="paint4_linear_164_2" x1="75" y1="18.4286" x2="75" y2="125.571" gradientUnits="userSpaceOnUse">
<stop stop-color="#3ABEFF"/>
<stop offset="1" stop-color="#FF4ECD"/>
</linearGradient>
</defs>
</svg>
