<svg width="1437" height="310" viewBox="0 0 1437 310" fill="none" xmlns="http://www.w3.org/2000/svg">
<g filter="url(#filter0_d_2_84)">
<path fill-rule="evenodd" clip-rule="evenodd" d="M406.533 5.07889C406.215 7.87184 405.406 19.6973 404.733 31.3566C404.062 43.016 403.344 52.7374 403.138 52.9609C402.933 53.1835 400.657 53.581 398.082 53.8442C393.657 54.2955 393.382 54.4802 393.088 57.1927C392.805 59.7914 392.467 60.0634 389.515 60.0634H386.253L385.581 77.9376C385.211 87.7677 384.273 104.76 383.497 115.698C382.721 126.636 381.783 147.906 381.413 162.966C381.043 178.026 380.578 191.114 380.379 192.05C379.945 194.092 377.983 195.35 376.159 194.755C375.431 194.517 373.305 194.323 371.435 194.323H368.035V182.34C368.035 175.75 367.571 169.589 367.005 168.649C366.067 167.093 364.804 166.94 352.831 166.933C345.602 166.929 337.336 166.675 334.465 166.369L329.242 165.811L329.228 160.414C329.219 157.446 328.827 154.477 328.355 153.816C327.708 152.908 323.18 152.505 309.721 152.16C299.942 151.909 290.152 151.655 287.964 151.594L283.985 151.483L283.458 159.875C282.962 167.77 282.904 167.953 282.463 162.966L281.995 157.666H258.621H235.246L234.973 171.904L234.701 186.141L215.577 186.92L196.453 187.698L195.833 200.506C195.491 207.55 195.155 216.609 195.087 220.638L194.961 227.962L187.253 227.704L179.544 227.446L179.047 220.821L178.549 214.197L174.819 213.923L171.089 213.648V208.497C171.089 204.614 170.701 203.212 169.516 202.809C168.65 202.513 159.027 202.272 148.13 202.272H128.318V208.31V214.35L124.091 214.273L119.864 214.197L119.366 224.947C119.093 230.86 118.644 235.895 118.37 236.137C118.095 236.379 116.67 236.844 115.204 237.171L112.537 237.765L112.221 222.635C111.966 210.377 111.623 207.341 110.414 206.643C108.762 205.689 88.9541 206.474 86.6116 207.587C85.4856 208.121 85.241 210.286 85.4409 217.976L85.6935 227.69L76.7703 228.317L67.8481 228.944L67.2254 238.794C66.8823 244.212 66.3401 252.658 66.0199 257.563L65.437 266.481L41.9219 267.237C28.9881 267.652 14.4908 267.947 9.7034 267.892L1 267.793V282.727V297.661L571.694 297.687C885.577 297.7 1178.64 298.087 1222.96 298.545C1311.16 299.458 1397.58 300.849 1418.07 301.683C1432.6 302.276 1431.33 302.766 1432.87 295.979C1433.52 293.156 1431.55 267.715 1430.61 266.752C1430.38 266.509 1405.94 266.112 1376.3 265.869L1322.42 265.427L1322.16 237.679C1321.99 219.002 1321.54 209.545 1320.8 208.751C1319.99 207.891 1316.55 207.572 1308.04 207.572H1296.39L1295.73 183.58C1295.37 170.384 1295.07 153.283 1295.07 145.577V131.565L1292.34 130.622C1289 129.471 1239.48 129.085 1237.51 130.195C1236.38 130.83 1236.26 135.753 1236.78 158.888C1237.12 174.247 1237.67 191.088 1238 196.31L1238.59 205.805H1230.59H1222.58L1221.88 201.638C1221.49 199.346 1221.44 191.179 1221.76 183.49C1222.45 166.92 1223.17 167.758 1208.89 168.481C1203.91 168.733 1197.32 168.66 1194.24 168.318L1188.64 167.697V158.075C1188.64 149.407 1188.45 148.362 1186.68 147.523C1185.43 146.928 1176.72 146.677 1162.58 146.829L1140.44 147.067L1140.76 160.979C1141.07 174.295 1141 174.891 1139.14 174.891C1137.39 174.891 1137.14 174.085 1136.68 166.837C1136.33 161.391 1135.72 158.538 1134.8 158.027C1133.48 157.296 1111.21 157.662 1096.39 158.657L1089.17 159.142V170.108V181.074H1080.73H1072.29L1072.93 202.714L1073.58 224.354H1068.54H1063.5L1062.78 214.859C1062.38 209.515 1061.58 205.08 1060.95 204.715C1060.33 204.358 1057.26 204.06 1054.11 204.052L1048.39 204.039V192.167C1048.39 183.639 1048.04 180.093 1047.15 179.58C1046.47 179.187 1038.57 178.468 1029.61 177.982L1013.32 177.099L1013.51 160.534L1013.69 143.969L1011.4 143.302C1010.13 142.934 1004.44 142.765 998.752 142.924L988.401 143.216L989.048 160.378C989.47 171.554 989.35 177.54 988.707 177.54C988.125 177.54 987.717 174.33 987.717 169.759C987.717 161.047 987.807 161.209 979.511 155.063L973.791 150.827V145.519C973.791 140.428 973.612 140.051 969.447 136.351C967.057 134.229 964.598 132.493 963.982 132.493C963.366 132.493 961.478 134.183 959.786 136.247C957.072 139.56 956.781 140.478 957.308 144.061C958.025 148.94 956.242 151.421 949.499 154.93C941.973 158.847 940.967 160.64 940.967 170.152V178.424H935.081C926.594 178.424 926.047 178.75 926.047 183.818C926.047 187.651 925.805 188.14 923.909 188.14C921.837 188.14 921.79 187.9 922.385 180.411C922.723 176.161 922.593 172.1 922.094 171.388C921.512 170.556 919.771 170.145 917.211 170.236C913.427 170.37 913.219 170.24 912.926 167.555C912.64 164.929 912.332 164.714 908.489 164.465L904.358 164.198L903.998 156.516C903.681 149.742 903.18 147.997 899.772 141.767C893.748 130.76 891.585 128.076 888.734 128.076C887.373 128.076 886.26 128.45 886.26 128.908C886.26 129.364 884.385 133.24 882.092 137.52C878.954 143.379 877.831 144.809 877.547 143.311C877.339 142.217 876.337 140.926 875.321 140.443C874.293 139.955 859.752 139.304 842.566 138.978L811.66 138.391V145.116V151.841L805.443 152.104L799.226 152.367L798.943 161.42L798.659 170.474H795.213H791.766L791.751 162.304C791.742 157.81 791.312 153.537 790.794 152.808C790.057 151.771 787.634 151.483 779.619 151.483H769.386L769.31 155.458L769.236 159.433L748.748 159.672L728.261 159.91L727.592 165.462C727.223 168.516 727.076 171.986 727.265 173.173C727.606 175.306 727.503 175.336 718.906 175.587L710.203 175.843V179.783C710.203 182.697 709.814 183.723 708.711 183.723C707.435 183.723 707.219 181.173 707.219 166.074C707.219 148.505 707.209 148.424 704.981 147.941C703.75 147.673 689.986 147.566 674.394 147.703L646.046 147.95L645.781 170.695L645.515 193.439H640.506H635.497L635.662 152.762C635.753 130.388 635.619 111.897 635.363 111.671C635.109 111.444 623.864 111.044 610.376 110.781C590.673 110.396 585.758 110.53 585.368 111.46C585.102 112.098 585.217 121.865 585.625 133.167C586.27 151.054 586.173 153.763 584.874 154.092C584.053 154.299 580.249 154.156 576.419 153.773C572.59 153.39 568.897 153.256 568.213 153.478C567.306 153.772 566.97 156.962 566.97 165.269V176.657H559.054H551.138L550.848 183.503L550.558 190.348L547.076 190.79L543.595 191.231L543.315 201.578L543.035 211.925L533.369 212.178L523.701 212.43L523.134 219.055C522.765 223.374 522.477 224.45 522.308 222.146C521.331 208.86 521.057 206.253 520.586 205.835C520.296 205.576 515.842 205.226 510.689 205.057L501.321 204.752V214.111C501.321 226.236 499.496 226.489 499.118 214.418L498.835 205.364L488.276 204.58L477.718 203.796L477.086 197.16C476.739 193.509 476.454 184.862 476.454 177.943C476.454 167.287 476.214 165.281 474.881 164.827C474.015 164.532 467.367 164.291 460.107 164.291C452.847 164.291 444.24 164.044 440.98 163.741L435.056 163.191L433.851 124.214C433.19 102.776 432.657 80.4161 432.669 74.5237L432.689 63.8112L429.705 62.7133C427.387 61.8609 426.721 61.0597 426.721 59.1254C426.721 56.207 426.167 55.8245 419.957 54.4634L415.282 53.4388L414.645 33.1983C413.724 3.86172 413.048 0 408.836 0C407.466 0 406.992 1.04404 406.533 5.07889ZM415.339 56.6354C418.432 57.327 419.758 58.0813 419.758 59.1483C419.758 60.929 422.338 63.1443 425.366 63.9613C427.213 64.4604 427.391 64.9303 426.725 67.5546C426.036 70.2645 426.637 100.484 428.328 148.23L428.933 165.293L431.373 166.117C432.715 166.57 441.788 166.941 451.536 166.941C469.075 166.941 469.266 166.961 469.86 168.928C470.189 170.022 470.472 178.468 470.488 187.698C470.504 196.928 470.916 205.041 471.404 205.726C472.043 206.622 475.249 207.088 482.828 207.387L493.364 207.803V216.859C493.364 227.137 493.211 226.968 502.565 226.992L507.289 227.004V217.782C507.289 212.709 507.624 208.385 508.035 208.171C508.446 207.957 510.235 207.979 512.014 208.22L515.247 208.656V217.653C515.247 223.474 515.668 227.026 516.44 227.711C517.097 228.294 520.179 228.771 523.291 228.771H528.947L529.338 222.636C529.553 219.261 530.09 216.181 530.533 215.79C530.975 215.4 535.215 215.08 539.952 215.08H548.568L549.27 211.105C549.656 208.919 549.958 204.547 549.941 201.389C549.923 198.231 549.943 195.176 549.985 194.599C550.026 194.023 551.514 193.427 553.293 193.274L556.526 192.998L556.818 186.064L557.111 179.129L565.273 179.439L573.435 179.749L573.713 168.045L573.99 156.342H582.913H591.836V135.143V113.944H610.735H629.634V154.544C629.634 201.859 628.177 197.189 642.818 196.785L652.014 196.531L652.28 173.786L652.545 151.042H676.898H701.251V168.235C701.251 188.093 700.813 187.257 711.214 187.257H717.33L716.999 183.061L716.668 178.865L725.123 178.424L733.578 177.982L733.483 170.175L733.389 162.367L752.448 162.999C762.93 163.346 772.484 163.355 773.679 163.017C775.525 162.497 775.851 161.753 775.851 158.049C775.851 154.116 776.069 153.693 778.089 153.704C784.545 153.738 784.803 154.093 784.803 162.893C784.803 168.024 785.242 171.394 785.997 172.064C786.744 172.727 790.454 173.124 795.909 173.124H804.627L804.911 164.07L805.194 155.017H811.66H818.125L817.798 148.613L817.47 142.209L839.183 142.217C851.125 142.22 863.299 142.48 866.235 142.794L871.575 143.363L871.209 165.055L870.843 186.747L874.009 187.554C875.749 187.998 878.292 188.112 879.656 187.808L882.14 187.255L882.459 168.486L882.779 149.717L886.63 142.651L890.481 135.584L894.015 142.209C897.047 147.894 897.609 149.961 897.978 156.783C898.214 161.155 898.766 165.074 899.204 165.49C899.642 165.907 901.497 166.519 903.324 166.851C906.013 167.339 906.741 167.951 907.15 170.068C907.605 172.423 908.07 172.709 911.842 172.953L916.03 173.223L916.313 181.785L916.598 190.348L924.306 190.606L932.015 190.864V186.41V181.957H938.919C942.949 181.957 946.111 181.544 946.513 180.966C946.893 180.421 947.478 175.953 947.815 171.038L948.427 162.1L954.893 157.786C962.647 152.611 963.759 151.057 963.825 145.3C963.853 142.871 964.316 140.288 964.854 139.559C966.484 137.356 967.791 140.177 967.808 145.931L967.823 150.977L974.04 155.552C977.46 158.068 980.586 160.567 980.988 161.105C981.39 161.643 981.725 165.971 981.734 170.723C981.751 180.65 981.942 180.854 990.638 180.325L995.674 180.02V162.88V145.742H1001.15H1006.62V162.966C1006.62 176.123 1006.91 180.205 1007.86 180.254C1008.54 180.288 1015.72 180.464 1023.8 180.642C1031.88 180.822 1039.38 181.217 1040.46 181.522C1042.29 182.037 1042.42 182.902 1042.42 193.962V205.85L1045.13 206.764C1046.62 207.267 1049.64 207.562 1051.85 207.42L1055.85 207.161L1056.14 215.93C1056.3 220.752 1056.91 225.217 1057.5 225.851C1059.13 227.594 1079.09 227.474 1079.85 225.716C1080.15 225.008 1079.95 215.57 1079.4 204.743C1078.84 193.916 1078.53 184.933 1078.7 184.782C1078.87 184.63 1082.53 184.35 1086.83 184.161C1091.13 183.97 1094.93 183.794 1095.29 183.769C1095.64 183.744 1095.68 178.755 1095.39 172.682L1094.85 161.641L1101.21 161.637C1104.71 161.635 1112.55 161.379 1118.63 161.068L1129.68 160.502L1130.39 168.584C1131.23 178.122 1131.67 178.518 1140.69 177.792L1146.86 177.295V163.779C1146.86 156.345 1147.2 150.098 1147.61 149.896C1148.02 149.695 1156.08 149.722 1165.52 149.957L1182.67 150.385V160.335C1182.67 168.594 1182.94 170.376 1184.25 170.821C1185.11 171.116 1192.46 171.357 1200.57 171.357H1215.32L1215.66 189.392C1215.84 199.312 1216.37 207.758 1216.82 208.162C1217.27 208.567 1223.69 209.028 1231.09 209.188L1244.52 209.478L1243.69 179.598C1243.23 163.163 1242.85 145.941 1242.85 141.326V132.934L1265.39 132.697L1287.92 132.46L1288.48 140.646C1288.79 145.149 1289.31 162.348 1289.63 178.865C1289.98 196.788 1290.61 209.253 1291.2 209.78C1291.74 210.266 1297.53 210.805 1304.06 210.977L1315.93 211.291L1316.19 239.684L1316.46 268.077L1370.67 268.519L1424.88 268.96L1425.15 283.653C1425.36 294.943 1425.13 298.43 1424.15 298.711C1423.46 298.913 1414.38 298.795 1403.99 298.451C1368.85 297.286 1267.3 295.892 1147.86 294.933C1067.86 294.292 862.069 294.186 518.479 294.609L7.96272 295.239V283.358V271.477L35.0676 270.423C49.9758 269.844 64.2633 269.376 66.8176 269.385L71.4637 269.402L72.0257 263.882C72.3351 260.846 72.9309 252.399 73.3486 245.112L74.1086 231.862L79.5793 231.642C82.5882 231.521 86.5042 231.205 88.2827 230.939L91.5154 230.457V220.45V210.443L94.6237 209.891C96.3336 209.587 99.436 209.339 101.52 209.339H105.307L105.623 223.946C105.877 235.754 106.225 238.715 107.43 239.391C108.251 239.851 112.406 240.232 116.662 240.24C122.871 240.251 124.524 239.972 125.017 238.831C125.355 238.047 125.677 232.882 125.732 227.351L125.832 217.294L130.556 217.291L135.281 217.288V211.105V204.922H149.656H164.032L164.327 210.443L164.624 215.963L168.603 216.405L172.581 216.847V222.972V229.099L175.833 229.848C177.622 230.26 183.871 230.484 189.72 230.347L200.355 230.096L201.083 227.004C201.484 225.304 202.128 216.461 202.516 207.351L203.22 190.79L208.292 190.682C211.081 190.623 219.629 190.324 227.288 190.019L241.214 189.465L240.919 175.111L240.626 160.758H258.078H275.53V165.143C275.53 170.369 276.921 171.357 284.274 171.357H289.17L289.821 165.143C290.178 161.726 290.176 157.885 289.815 156.61L289.159 154.291L299.907 154.874C305.817 155.196 313.269 155.458 316.467 155.458H322.28V161.589C322.28 165.524 322.725 167.976 323.523 168.435C324.207 168.828 333.047 169.348 343.168 169.591L361.569 170.032L361.584 182.84C361.593 189.884 361.955 196.145 362.389 196.752C363.219 197.912 382.245 198.382 385.36 197.32C386.68 196.87 386.935 194.983 386.937 185.616C386.941 171.761 388.438 139.226 390.437 109.527C391.271 97.1393 392.055 81.6377 392.179 75.0793L392.404 63.1549L395.637 62.8784C398.489 62.6338 398.87 62.2919 398.87 59.9786C398.87 58.0848 399.491 57.1344 401.108 56.5576C404.242 55.4394 410.133 55.4712 415.339 56.6354ZM799.991 134.871C800.959 135.096 802.302 135.081 802.975 134.839C803.648 134.597 802.857 134.414 801.216 134.432C799.574 134.449 799.023 134.647 799.991 134.871Z" fill="#FF4ECD" fill-opacity="0.31" shape-rendering="crispEdges"/>
</g>
<defs>
<filter id="filter0_d_2_84" x="-3" y="0" width="1440" height="310" filterUnits="userSpaceOnUse" color-interpolation-filters="sRGB">
<feFlood flood-opacity="0" result="BackgroundImageFix"/>
<feColorMatrix in="SourceAlpha" type="matrix" values="0 0 0 0 0 0 0 0 0 0 0 0 0 0 0 0 0 0 127 0" result="hardAlpha"/>
<feOffset dy="4"/>
<feGaussianBlur stdDeviation="2"/>
<feComposite in2="hardAlpha" operator="out"/>
<feColorMatrix type="matrix" values="0 0 0 0 0 0 0 0 0 0 0 0 0 0 0 0 0 0 0.25 0"/>
<feBlend mode="normal" in2="BackgroundImageFix" result="effect1_dropShadow_2_84"/>
<feBlend mode="normal" in="SourceGraphic" in2="effect1_dropShadow_2_84" result="shape"/>
</filter>
</defs>
</svg>
