<svg width="140" height="140" viewBox="0 0 140 140" fill="none" xmlns="http://www.w3.org/2000/svg">
<mask id="mask0_21_5" style="mask-type:alpha" maskUnits="userSpaceOnUse" x="32" y="32" width="75" height="75">
<rect x="32" y="32" width="75" height="75" fill="url(#paint0_linear_21_5)"/>
</mask>
<g mask="url(#mask0_21_5)">
<path d="M69.5 97.625C63.4062 97.625 58.237 95.5026 53.9922 91.2578C49.7474 87.013 47.625 81.8438 47.625 75.75C47.625 70.8542 49.0703 66.4662 51.9609 62.586C54.8516 58.7058 58.6406 56.0886 63.3281 54.7344C62.2865 54.474 61.2708 54.0964 60.2813 53.6016C59.2917 53.1068 58.4062 52.4688 57.625 51.6875C55.9062 49.9688 54.7995 47.9245 54.3047 45.5547C53.8099 43.1849 53.6927 40.7761 53.9531 38.3281C56.401 38.0677 58.8099 38.1849 61.1797 38.6797C63.5495 39.1745 65.5938 40.2813 67.3125 42C68.5104 43.1979 69.3828 44.5521 69.9297 46.0625C70.4766 47.5729 70.8281 49.1615 70.9844 50.8281C71.6615 49.2136 72.4818 47.6901 73.4453 46.2578C74.4089 44.8255 75.4896 43.5104 76.6875 42.3125C77.2604 41.7396 77.9896 41.4531 78.875 41.4531C79.7604 41.4531 80.4896 41.7396 81.0625 42.3125C81.6354 42.8854 81.9219 43.6146 81.9219 44.5C81.9219 45.3854 81.6354 46.1146 81.0625 46.6875C79.9167 47.8334 78.901 49.0964 78.0156 50.4766C77.1302 51.8568 76.4792 53.3281 76.0625 54.8906C80.6458 56.349 84.3438 58.9922 87.1562 62.8203C89.9688 66.6485 91.375 70.9584 91.375 75.75C91.375 81.8438 89.2526 87.013 85.0078 91.2578C80.763 95.5026 75.5938 97.625 69.5 97.625ZM69.5 91.375C73.8229 91.375 77.5078 89.8516 80.5547 86.8047C83.6016 83.7578 85.125 80.0729 85.125 75.75C85.125 71.4271 83.6016 67.7422 80.5547 64.6953C77.5078 61.6485 73.8229 60.125 69.5 60.125C65.1771 60.125 61.4922 61.6485 58.4453 64.6953C55.3984 67.7422 53.875 71.4271 53.875 75.75C53.875 80.0729 55.3984 83.7578 58.4453 86.8047C61.4922 89.8516 65.1771 91.375 69.5 91.375Z" fill="url(#paint1_linear_21_5)"/>
</g>
<circle cx="70" cy="70" r="48" stroke="url(#paint2_linear_21_5)" stroke-width="4"/>
<defs>
<linearGradient id="paint0_linear_21_5" x1="69.5" y1="32" x2="69.5" y2="107" gradientUnits="userSpaceOnUse">
<stop stop-color="#D4AF37"/>
<stop offset="1" stop-color="#B47B32"/>
</linearGradient>
<linearGradient id="paint1_linear_21_5" x1="69.5" y1="38.1934" x2="69.5" y2="97.625" gradientUnits="userSpaceOnUse">
<stop stop-color="#3ABEFF"/>
<stop offset="1" stop-color="#FF4ECD"/>
</linearGradient>
<linearGradient id="paint2_linear_21_5" x1="70" y1="20" x2="70" y2="120" gradientUnits="userSpaceOnUse">
<stop stop-color="#3ABEFF"/>
<stop offset="1" stop-color="#FF4ECD"/>
</linearGradient>
</defs>
</svg>
