<svg width="1440" height="331" viewBox="0 0 1440 331" fill="none" xmlns="http://www.w3.org/2000/svg">
<g filter="url(#filter0_d_2_84)">
<path fill-rule="evenodd" clip-rule="evenodd" d="M403.312 5.84309C402.988 8.82638 402.16 21.4577 401.473 33.9117C400.787 46.3657 400.054 56.7497 399.843 56.9884C399.634 57.2261 397.309 57.6507 394.678 57.9319C390.157 58.414 389.876 58.6112 389.576 61.5086C389.287 64.2843 388.942 64.5749 385.925 64.5749H382.593L381.906 83.6673C381.528 94.1673 380.57 112.318 379.777 124.001C378.985 135.684 378.026 158.404 377.648 174.491C377.27 190.577 376.795 204.557 376.592 205.557C376.148 207.738 374.143 209.082 372.281 208.446C371.537 208.192 369.364 207.984 367.454 207.984H363.98V195.185C363.98 188.146 363.507 181.565 362.929 180.561C361.97 178.899 360.68 178.735 348.448 178.728C341.062 178.724 332.617 178.452 329.683 178.125L324.348 177.53L324.333 171.765C324.324 168.594 323.924 165.423 323.442 164.717C322.78 163.747 318.155 163.317 304.404 162.948C294.414 162.68 284.411 162.408 282.176 162.343L278.111 162.225L277.572 171.189C277.066 179.622 277.006 179.818 276.556 174.491L276.078 168.83H252.198H228.317L228.038 184.038L227.76 199.245L208.222 200.077L188.685 200.908L188.051 214.589C187.701 222.113 187.359 231.789 187.288 236.093L187.16 243.916L179.285 243.64L171.409 243.365L170.901 236.289L170.393 229.213L166.582 228.92L162.771 228.627V223.124C162.771 218.977 162.375 217.48 161.164 217.048C160.28 216.733 150.448 216.476 139.315 216.476H119.075V222.925V229.376L114.756 229.294L110.437 229.213L109.929 240.696C109.649 247.012 109.191 252.39 108.91 252.649C108.63 252.906 107.174 253.404 105.676 253.753L102.951 254.388L102.629 238.226C102.368 225.133 102.017 221.889 100.783 221.144C99.0949 220.125 78.8581 220.964 76.4649 222.153C75.3146 222.723 75.0646 225.036 75.2689 233.25L75.527 243.625L66.4106 244.295L57.2952 244.965L56.6591 255.487C56.3085 261.274 55.7546 270.295 55.4274 275.535L54.8319 285.06L30.8078 285.868C17.594 286.311 2.78282 286.626 -2.10819 286.568L-11 286.461V302.414V318.365L572.049 318.393C892.726 318.407 1192.14 318.82 1237.41 319.31C1327.52 320.285 1415.81 321.77 1436.75 322.662C1451.59 323.295 1450.29 323.819 1451.87 316.569C1452.53 313.553 1450.52 286.378 1449.56 285.35C1449.32 285.091 1424.35 284.666 1394.08 284.406L1339.03 283.935L1338.76 254.295C1338.58 234.345 1338.13 224.244 1337.37 223.396C1336.55 222.477 1333.03 222.137 1324.33 222.137H1312.43L1311.76 196.51C1311.39 182.414 1311.09 164.147 1311.09 155.916V140.95L1308.29 139.942C1304.88 138.713 1254.29 138.301 1252.28 139.487C1251.12 140.164 1251 145.423 1251.53 170.135C1251.88 186.541 1252.45 204.529 1252.78 210.107L1253.38 220.25H1245.21H1237.03L1236.31 215.798C1235.91 213.35 1235.86 204.627 1236.19 196.413C1236.9 178.714 1237.63 179.609 1223.04 180.382C1217.95 180.651 1211.22 180.572 1208.07 180.207L1202.35 179.544V169.267C1202.35 160.007 1202.15 158.891 1200.35 157.995C1199.07 157.36 1190.17 157.092 1175.73 157.254L1153.1 157.508L1153.44 172.368C1153.75 186.592 1153.68 187.228 1151.78 187.228C1149.99 187.228 1149.74 186.367 1149.26 178.625C1148.91 172.808 1148.28 169.761 1147.34 169.215C1146 168.435 1123.24 168.825 1108.1 169.888L1100.73 170.406V182.119V193.832H1092.1H1083.48L1084.14 216.947L1084.8 240.063H1079.65H1074.5L1073.77 229.92C1073.35 224.212 1072.53 219.475 1071.89 219.084C1071.27 218.703 1068.12 218.385 1064.91 218.377L1059.07 218.363V205.681C1059.07 196.572 1058.71 192.785 1057.8 192.237C1057.1 191.817 1049.04 191.049 1039.88 190.53L1023.24 189.586L1023.43 171.893L1023.61 154.199L1021.27 153.486C1019.98 153.093 1014.17 152.912 1008.35 153.083L997.777 153.394L998.437 171.726C998.868 183.664 998.746 190.058 998.089 190.058C997.494 190.058 997.077 186.629 997.077 181.747C997.077 172.441 997.17 172.614 988.694 166.049L982.851 161.524V155.854C982.851 150.417 982.668 150.014 978.412 146.062C975.97 143.795 973.458 141.941 972.829 141.941C972.2 141.941 970.271 143.745 968.542 145.95C965.769 149.489 965.471 150.47 966.01 154.297C966.743 159.508 964.922 162.158 958.032 165.907C950.343 170.09 949.316 172.007 949.316 182.166V191.002H943.302C934.631 191.002 934.073 191.351 934.073 196.764C934.073 200.858 933.826 201.38 931.888 201.38C929.771 201.38 929.723 201.123 930.331 193.125C930.676 188.584 930.543 184.247 930.034 183.487C929.44 182.598 927.66 182.158 925.046 182.256C921.179 182.399 920.967 182.26 920.668 179.392C920.375 176.587 920.06 176.358 916.135 176.092L911.914 175.807L911.546 167.6C911.222 160.366 910.711 158.502 907.228 151.847C901.074 140.089 898.864 137.223 895.952 137.223C894.561 137.223 893.424 137.622 893.424 138.111C893.424 138.599 891.509 142.739 889.166 147.31C885.96 153.569 884.813 155.096 884.522 153.496C884.31 152.327 883.287 150.949 882.248 150.433C881.198 149.911 866.342 149.216 848.784 148.868L817.209 148.24V155.424V162.608L810.857 162.888L804.506 163.169L804.217 172.84L803.927 182.51H800.406H796.885L796.869 173.783C796.86 168.983 796.42 164.419 795.892 163.641C795.139 162.532 792.663 162.225 784.475 162.225H774.02L773.943 166.471L773.867 170.717L752.936 170.972L732.005 171.226L731.321 177.157C730.944 180.419 730.795 184.126 730.988 185.394C731.335 187.671 731.231 187.703 722.447 187.972L713.556 188.245V192.454C713.556 195.566 713.158 196.663 712.031 196.663C710.728 196.663 710.507 193.939 710.507 177.811C710.507 159.044 710.497 158.957 708.221 158.441C706.964 158.155 692.901 158.041 676.972 158.187L648.01 158.452L647.739 182.746L647.468 207.041H642.35H637.232L637.401 163.591C637.495 139.692 637.357 119.941 637.096 119.7C636.836 119.457 625.348 119.03 611.568 118.749C591.438 118.337 586.417 118.481 586.019 119.474C585.746 120.156 585.864 130.589 586.281 142.66C586.94 161.767 586.841 164.661 585.514 165.012C584.675 165.233 580.788 165.08 576.876 164.671C572.963 164.261 569.191 164.119 568.492 164.356C567.565 164.67 567.222 168.077 567.222 176.95V189.115H559.135H551.048L550.751 196.427L550.454 203.739L546.898 204.21L543.341 204.682L543.055 215.734L542.769 226.786L532.893 227.056L523.017 227.326L522.438 234.402C522.061 239.016 521.766 240.165 521.593 237.704C520.595 223.512 520.315 220.728 519.834 220.281C519.537 220.004 514.988 219.631 509.723 219.451L500.152 219.124V229.121C500.152 242.072 498.287 242.343 497.901 229.449L497.612 219.778L486.825 218.941L476.038 218.103L475.392 211.015C475.038 207.115 474.747 197.879 474.747 190.488C474.747 179.106 474.501 176.964 473.139 176.479C472.255 176.164 465.463 175.906 458.046 175.906C450.628 175.906 441.835 175.642 438.505 175.318L432.452 174.731L431.222 133.097C430.546 110.199 430.001 86.3147 430.014 80.0207L430.034 68.5781L426.985 67.4054C424.617 66.4949 423.937 65.6392 423.937 63.5729C423.937 60.4557 423.371 60.0471 417.026 58.5932L412.25 57.4988L411.6 35.8789C410.659 4.54297 409.968 0.41806 405.665 0.41806C404.265 0.41806 403.781 1.53326 403.312 5.84309ZM412.308 60.9133C415.469 61.652 416.823 62.4577 416.823 63.5975C416.823 65.4995 419.459 67.8658 422.553 68.7385C424.44 69.2716 424.622 69.7735 423.941 72.5766C423.237 75.4712 423.851 107.751 425.579 158.751L426.197 176.976L428.689 177.856C430.06 178.34 439.33 178.736 449.289 178.736C467.208 178.736 467.403 178.758 468.01 180.859C468.346 182.027 468.636 191.049 468.652 200.908C468.668 210.768 469.089 219.434 469.588 220.165C470.24 221.121 473.515 221.62 481.259 221.939L492.023 222.384V232.056C492.023 243.035 491.866 242.855 501.422 242.88L506.249 242.893V233.042C506.249 227.624 506.592 223.005 507.012 222.776C507.431 222.548 509.259 222.572 511.076 222.828L514.379 223.294V232.905C514.379 239.122 514.81 242.916 515.599 243.648C516.269 244.271 519.418 244.78 522.597 244.78H528.376L528.776 238.227C528.995 234.622 529.544 231.332 529.996 230.915C530.448 230.498 534.779 230.156 539.62 230.156H548.422L549.139 225.911C549.534 223.575 549.842 218.905 549.824 215.532C549.806 212.159 549.826 208.896 549.869 208.28C549.912 207.665 551.432 207.028 553.249 206.864L556.552 206.569L556.85 199.163L557.149 191.756L565.488 192.087L573.827 192.417L574.111 179.916L574.394 167.415H583.511H592.627V144.771V122.127H611.935H631.243V165.495C631.243 216.034 629.754 211.046 644.712 210.614L654.108 210.343L654.379 186.048L654.65 161.754H679.53H704.41V180.119C704.41 201.33 703.963 200.437 714.589 200.437H720.837L720.499 195.955L720.161 191.473L728.799 191.002L737.437 190.53L737.34 182.19L737.243 173.851L756.715 174.526C767.424 174.896 777.185 174.906 778.406 174.545C780.292 173.99 780.625 173.194 780.625 169.238C780.625 165.037 780.848 164.585 782.912 164.597C789.507 164.634 789.771 165.012 789.771 174.412C789.771 179.893 790.219 183.492 790.991 184.209C791.754 184.917 795.544 185.341 801.117 185.341H810.024L810.314 175.67L810.603 165.999H817.209H823.814L823.48 159.159L823.145 152.319L845.328 152.327C857.529 152.331 869.966 152.609 872.966 152.943L878.421 153.551L878.047 176.722L877.673 199.892L880.908 200.754C882.686 201.228 885.284 201.351 886.678 201.025L889.215 200.435L889.541 180.387L889.868 160.338L893.802 152.791L897.736 145.243L901.347 152.319C904.445 158.391 905.019 160.599 905.396 167.886C905.637 172.557 906.201 176.742 906.648 177.186C907.096 177.632 908.991 178.285 910.857 178.64C913.605 179.162 914.349 179.816 914.767 182.076C915.231 184.592 915.707 184.897 919.56 185.158L923.838 185.446L924.128 194.593L924.419 203.739L932.294 204.014L940.17 204.29V199.533V194.776H947.223C951.34 194.776 954.571 194.335 954.981 193.717C955.369 193.135 955.968 188.363 956.311 183.112L956.937 173.565L963.543 168.957C971.465 163.43 972.601 161.77 972.668 155.621C972.697 153.026 973.17 150.267 973.72 149.488C975.384 147.135 976.72 150.149 976.738 156.295L976.753 161.685L983.105 166.571C986.598 169.259 989.792 171.928 990.203 172.503C990.613 173.077 990.956 177.7 990.965 182.776C990.982 193.379 991.177 193.598 1000.06 193.033L1005.21 192.707V174.399V156.093H1010.8H1016.39V174.491C1016.39 188.544 1016.69 192.905 1017.66 192.957C1018.35 192.993 1025.68 193.181 1033.94 193.372C1042.2 193.563 1049.86 193.986 1050.96 194.311C1052.83 194.861 1052.97 195.785 1052.97 207.599V220.297L1055.74 221.273C1057.26 221.811 1060.35 222.126 1062.6 221.974L1066.69 221.698L1066.98 231.064C1067.14 236.214 1067.77 240.984 1068.38 241.661C1070.04 243.523 1090.42 243.395 1091.2 241.518C1091.51 240.761 1091.31 230.68 1090.74 219.115C1090.17 207.55 1089.85 197.955 1090.03 197.794C1090.2 197.632 1093.94 197.332 1098.33 197.13C1102.73 196.926 1106.61 196.738 1106.97 196.712C1107.33 196.684 1107.38 191.355 1107.08 184.869L1106.53 173.075L1113.03 173.071C1116.61 173.069 1124.61 172.795 1130.82 172.463L1142.11 171.858L1142.84 180.491C1143.7 190.679 1144.15 191.103 1153.36 190.327L1159.67 189.796V175.359C1159.67 167.418 1160.01 160.745 1160.43 160.53C1160.85 160.315 1169.08 160.344 1178.72 160.595L1196.25 161.052V171.68C1196.25 180.502 1196.53 182.406 1197.86 182.881C1198.75 183.196 1206.25 183.454 1214.54 183.454H1229.61L1229.95 202.718C1230.14 213.313 1230.68 222.336 1231.14 222.767C1231.6 223.199 1238.16 223.691 1245.71 223.862L1259.44 224.173L1258.59 192.256C1258.12 174.701 1257.73 156.305 1257.73 151.375V142.412L1280.76 142.158L1303.78 141.906L1304.35 150.65C1304.67 155.46 1305.2 173.83 1305.53 191.473C1305.88 210.618 1306.53 223.932 1307.13 224.495C1307.69 225.014 1313.6 225.59 1320.27 225.774L1332.4 226.109L1332.67 256.437L1332.93 286.765L1388.32 287.237L1443.7 287.709L1443.98 303.403C1444.19 315.462 1443.96 319.187 1442.96 319.487C1442.25 319.702 1432.98 319.577 1422.36 319.209C1386.46 317.965 1282.71 316.475 1160.69 315.452C1078.96 314.767 868.709 314.654 517.682 315.106L-3.88655 315.778V303.087V290.397L23.8051 289.271C39.036 288.652 53.6328 288.153 56.2424 288.163L60.9891 288.18L61.5633 282.284C61.8793 279.041 62.488 270.018 62.9148 262.235L63.6912 248.082L69.2804 247.847C72.3544 247.718 76.3552 247.38 78.1722 247.096L81.4748 246.581V235.893V225.203L84.6505 224.613C86.3973 224.289 89.5669 224.024 91.6959 224.024H95.5646L95.8877 239.627C96.1479 252.239 96.5025 255.402 97.7342 256.124C98.5725 256.615 102.817 257.023 107.166 257.031C113.51 257.043 115.198 256.745 115.702 255.526C116.047 254.689 116.376 249.171 116.432 243.263L116.534 232.521L121.361 232.518L126.188 232.515V225.911V219.306H140.874H155.561L155.863 225.203L156.166 231.1L160.231 231.571L164.296 232.043V238.586V245.13L167.618 245.93C169.446 246.371 175.83 246.611 181.805 246.463L192.67 246.195L193.414 242.893C193.824 241.077 194.482 231.631 194.878 221.901L195.598 204.21L200.78 204.095C203.629 204.032 212.362 203.713 220.187 203.388L234.414 202.795L234.113 187.464L233.813 172.132H251.643H269.473V176.816C269.473 182.398 270.894 183.454 278.407 183.454H283.408L284.073 176.816C284.438 173.166 284.436 169.064 284.067 167.701L283.397 165.224L294.377 165.847C300.416 166.191 308.029 166.471 311.296 166.471H317.235V173.02C317.235 177.223 317.69 179.842 318.505 180.332C319.204 180.752 328.235 181.307 338.575 181.567L357.375 182.039L357.39 195.719C357.399 203.243 357.769 209.931 358.212 210.579C359.06 211.818 378.498 212.32 381.681 211.186C383.029 210.705 383.289 208.689 383.291 198.684C383.295 183.885 384.825 149.133 386.867 117.41C387.72 104.178 388.521 87.6195 388.647 80.6141L388.878 67.8771L392.18 67.5818C395.094 67.3205 395.483 66.9553 395.483 64.4843C395.483 62.4615 396.118 61.4463 397.769 60.8302C400.971 59.6358 406.99 59.6698 412.308 60.9133ZM805.288 144.481C806.276 144.721 807.648 144.705 808.336 144.446C809.024 144.188 808.215 143.993 806.539 144.012C804.862 144.03 804.299 144.242 805.288 144.481Z" fill="#FF4ECD"/>
</g>
<defs>
<filter id="filter0_d_2_84" x="-15" y="0.41806" width="1471" height="330.582" filterUnits="userSpaceOnUse" color-interpolation-filters="sRGB">
<feFlood flood-opacity="0" result="BackgroundImageFix"/>
<feColorMatrix in="SourceAlpha" type="matrix" values="0 0 0 0 0 0 0 0 0 0 0 0 0 0 0 0 0 0 127 0" result="hardAlpha"/>
<feOffset dy="4"/>
<feGaussianBlur stdDeviation="2"/>
<feComposite in2="hardAlpha" operator="out"/>
<feColorMatrix type="matrix" values="0 0 0 0 0 0 0 0 0 0 0 0 0 0 0 0 0 0 0.25 0"/>
<feBlend mode="normal" in2="BackgroundImageFix" result="effect1_dropShadow_2_84"/>
<feBlend mode="normal" in="SourceGraphic" in2="effect1_dropShadow_2_84" result="shape"/>
</filter>
</defs>
</svg>
